<svg version="1.1" xmlns="http://www.w3.org/2000/svg" viewBox="0 0 1957.8570010867502 825" width="1957.8570010867502" height="825">
  <!-- svg-source:excalidraw -->
  
  <defs>
    <style class="style-fonts">
      @font-face {
        font-family: "Virgil";
        src: url("https://excalidraw.com/Virgil.woff2");
      }
      @font-face {
        font-family: "Cascadia";
        src: url("https://excalidraw.com/Cascadia.woff2");
      }
      @font-face {
        font-family: "Assistant";
        src: url("https://excalidraw.com/Assistant-Regular.woff2");
      }
    </style>
    
  </defs>
  <rect x="0" y="0" width="1957.8570010867502" height="825" fill="#ffffff"></rect><g stroke-linecap="round" transform="translate(49 321.375) rotate(0 120 183.5)"><path d="M7.86 8.16 C7.86 8.16, 7.86 8.16, 7.86 8.16 M7.86 8.16 C7.86 8.16, 7.86 8.16, 7.86 8.16 M8.78 31.49 C14.2 28.12, 19.15 17.16, 34.37 2.05 M8.78 31.49 C16.39 20.78, 25.98 12.08, 34.37 2.05 M8.39 56.32 C23.69 36.94, 39.43 16.07, 55.63 1.98 M8.39 56.32 C21.8 38.29, 36.89 22.41, 55.63 1.98 M8.66 80.4 C31.72 51.75, 60.08 22.02, 76.89 1.91 M8.66 80.4 C30.33 55.73, 56.32 29.4, 76.89 1.91 M8.27 105.24 C42.43 63.19, 74.79 27.99, 98.15 1.85 M8.27 105.24 C43.4 66.06, 78.42 25.8, 98.15 1.85 M8.54 129.32 C32.11 96.05, 59.14 66.03, 119.41 1.78 M8.54 129.32 C43.19 85.4, 79.19 43.47, 119.41 1.78 M8.8 153.4 C37.21 119.06, 69.15 87.98, 140.67 1.71 M8.8 153.4 C48.45 112.8, 81.46 73.1, 140.67 1.71 M8.41 178.24 C63.03 112.77, 122.03 49.7, 161.28 2.39 M8.41 178.24 C55.94 126.57, 101.06 71.11, 161.28 2.39 M8.68 202.32 C48.89 157.11, 86.99 112.16, 182.54 2.32 M8.68 202.32 C68.08 134.3, 125.94 65.71, 182.54 2.32 M8.29 227.16 C70.3 150.18, 134.08 75.44, 203.8 2.26 M8.29 227.16 C65.31 155.16, 123.69 85.97, 203.8 2.26 M8.56 251.24 C68.74 184.79, 124.55 123.08, 223.74 3.7 M8.56 251.24 C77.3 173.71, 142.61 96.7, 223.74 3.7 M8.17 276.08 C72.04 200.66, 137.99 127.45, 236.48 13.44 M8.17 276.08 C100.93 173.83, 189.63 69, 236.48 13.44 M8.43 300.16 C85.85 214.59, 165.9 126.04, 240.68 32.99 M8.43 300.16 C71.3 230.57, 133.73 157.94, 240.68 32.99 M8.04 324.99 C87.37 232.09, 170.34 138.99, 240.94 57.07 M8.04 324.99 C79.61 243.38, 153.12 159.18, 240.94 57.07 M11.59 345.3 C78.2 276.42, 139.3 200.21, 240.55 81.91 M11.59 345.3 C68.35 276.33, 127.77 209.39, 240.55 81.91 M15.79 364.86 C85.71 283.54, 154.04 208.47, 240.82 105.99 M15.79 364.86 C69.06 303.93, 124.25 239.82, 240.82 105.99 M33.77 368.56 C94.14 297.21, 152.83 232.25, 241.09 130.07 M33.77 368.56 C87.46 307.73, 142.96 246.86, 241.09 130.07 M55.03 368.49 C108.21 309.31, 157.46 252.46, 240.7 154.91 M55.03 368.49 C95.96 324.23, 136.98 277.04, 240.7 154.91 M76.29 368.42 C115.51 327.74, 153.25 284.9, 240.96 178.99 M76.29 368.42 C109.24 328.47, 144.78 288.06, 240.96 178.99 M97.55 368.35 C154.46 303.44, 209.08 242.41, 240.57 203.83 M97.55 368.35 C145.39 311.52, 195.08 254.69, 240.57 203.83 M118.81 368.29 C154.44 334.45, 180.09 300.85, 240.84 227.91 M118.81 368.29 C146.71 339.3, 175.89 306.79, 240.84 227.91 M140.07 368.22 C165.87 341.87, 182.34 317.86, 241.11 251.99 M140.07 368.22 C176.06 326.14, 212.72 284.39, 241.11 251.99 M160.68 368.9 C174.76 347.76, 193.27 325.62, 240.72 276.83 M160.68 368.9 C184.91 341.2, 210.49 312.54, 240.72 276.83 M181.94 368.83 C195.09 355.44, 209.66 333.43, 240.98 300.91 M181.94 368.83 C198.73 352.66, 213.97 331.73, 240.98 300.91 M203.2 368.76 C217.62 357.85, 221.77 342.79, 240.59 325.75 M203.2 368.76 C216.51 355.55, 226.1 341.49, 240.59 325.75" stroke="#ffc9c9" stroke-width="2" fill="none"></path><path d="M32 0 C92.19 -1.11, 144.92 -0.9, 208 0 M32 0 C86.59 0.07, 144.74 0.43, 208 0 M208 0 C227.68 -2.74, 236.19 13.92, 240 32 M208 0 C228.52 -2.1, 244.5 11.56, 240 32 M240 32 C245.21 124.81, 245.11 219.77, 240 335 M240 32 C235.55 152.42, 237.54 271.85, 240 335 M240 335 C241.92 358.86, 229.88 368.84, 208 367 M240 335 C237.35 354.02, 230.01 368.32, 208 367 M208 367 C136.72 368.56, 74.45 369.67, 32 367 M208 367 C173.27 369.7, 135.72 369.63, 32 367 M32 367 C11.45 363.12, -0.78 357.61, 0 335 M32 367 C13.85 371.57, 3.87 351.8, 0 335 M0 335 C5.52 266.54, 2.55 193, 0 32 M0 335 C2.92 272.15, 4 209.87, 0 32 M0 32 C1.7 9.94, 8.43 -0.61, 32 0 M0 32 C2.41 14.49, 7.32 -1.35, 32 0" stroke="#e03131" stroke-width="4" fill="none"></path></g><g stroke-linecap="round" transform="translate(63.75 569.875) rotate(0 100.5 32)"><path d="M16 0 C82.58 -5.21, 148.9 -1.43, 185 0 C192.75 3.5, 200.58 10.58, 201 16 C196.41 28.38, 196.08 31.13, 201 48 C205 63.26, 197.4 64.43, 185 64 C117.77 64.35, 59.66 56.09, 16 64 C2.17 67.99, 2.96 61.71, 0 48 C-0.66 32.75, 5.05 18.4, 0 16 C-3.09 6.9, 2.58 -0.6, 16 0" stroke="none" stroke-width="0" fill="#b2f2bb"></path><path d="M16 0 C77.05 -0.97, 141.22 2.6, 185 0 M16 0 C64.27 4.55, 111.2 1.15, 185 0 M185 0 C198.16 -3.44, 202.49 1.68, 201 16 M185 0 C198.66 -0.17, 199.8 4.9, 201 16 M201 16 C197.89 20.92, 203.8 30.6, 201 48 M201 16 C200.89 25.81, 200.92 32.8, 201 48 M201 48 C199.27 55.5, 193.8 66.57, 185 64 M201 48 C196.41 61.19, 195.91 67.93, 185 64 M185 64 C119.66 66.98, 62.28 65.74, 16 64 M185 64 C149.06 65.27, 111.98 63.1, 16 64 M16 64 C8.86 67.31, 1.83 61.27, 0 48 M16 64 C3.15 64.02, -2.74 59.41, 0 48 M0 48 C1.67 35.44, -0.19 27.14, 0 16 M0 48 C-0.47 41.53, 0.59 33.2, 0 16 M0 16 C-3.81 9.27, 4.88 2.75, 16 0 M0 16 C-4.45 3.84, 7.57 0.66, 16 0" stroke="#1971c2" stroke-width="4" fill="none"></path></g><g transform="translate(129.25 581.875) rotate(0 37.46398162841797 17.5)"><text x="0" y="0" font-family="Virgil, Segoe UI Emoji" font-size="28px" fill="#1e1e1e" text-anchor="start" style="white-space: pre;" direction="ltr" dominant-baseline="text-before-edge">Proxy</text></g><g stroke-linecap="round" transform="translate(69.25 370.875) rotate(0 100.5 32)"><path d="M16 0 C61 2.82, 100.35 0.93, 185 0 C194.5 -3.58, 196.37 6, 201 16 C200.75 30.02, 203.62 38.05, 201 48 C199.22 63.88, 193.64 61.29, 185 64 C145.15 72.26, 107.22 69.77, 16 64 C6.46 64.48, -2.3 57.72, 0 48 C3.8 41.33, -4.24 21.81, 0 16 C4.17 2.97, 5.67 -3.57, 16 0" stroke="none" stroke-width="0" fill="#b2f2bb"></path><path d="M16 0 C59.23 -4.48, 100.07 -5.86, 185 0 M16 0 C80.92 2.5, 150.54 -0.26, 185 0 M185 0 C195.88 -0.57, 200.73 7.76, 201 16 M185 0 C192.85 0.94, 199.65 9.48, 201 16 M201 16 C199.31 22.19, 197.48 33.99, 201 48 M201 16 C200.19 20.77, 201.89 28.62, 201 48 M201 48 C200.08 59.01, 193.9 60.46, 185 64 M201 48 C197.46 56.73, 191.64 65.21, 185 64 M185 64 C145.33 69.66, 110.41 64.36, 16 64 M185 64 C124.75 67.15, 69.41 65.85, 16 64 M16 64 C6.14 62.05, 2.95 60.31, 0 48 M16 64 C6.4 59.77, -2.23 60.61, 0 48 M0 48 C1.94 42.28, -4.01 32.33, 0 16 M0 48 C-1.18 40.34, -1.21 30.72, 0 16 M0 16 C-0.08 6.76, 3.78 0.15, 16 0 M0 16 C-0.67 8.96, 2.88 -3.81, 16 0" stroke="#1971c2" stroke-width="4" fill="none"></path></g><g transform="translate(131.88002014160156 385.375) rotate(0 37.86997985839844 17.5)"><text x="37.86997985839844" y="0" font-family="Virgil, Segoe UI Emoji" font-size="28px" fill="#1e1e1e" text-anchor="middle" style="white-space: pre;" direction="ltr" dominant-baseline="text-before-edge">Client</text></g><g transform="translate(114 493.875) rotate(1.5513624353037379 51.46797834123875 15)"><text x="0" y="0" font-family="Virgil, Segoe UI Emoji" font-size="23.999999999999975px" fill="#e03131" text-anchor="start" style="white-space: pre;" direction="ltr" dominant-baseline="text-before-edge">requests</text></g><g stroke-linecap="round" transform="translate(480.25 141.25) rotate(0 130.63099670410156 59.375)"><path d="M7.25 7.62 C7.25 7.62, 7.25 7.62, 7.25 7.62 M7.25 7.62 C7.25 7.62, 7.25 7.62, 7.25 7.62 M8.82 30.2 C15.49 23.93, 23.54 11.5, 32.44 3.03 M8.82 30.2 C12.87 24.82, 20.2 19.08, 32.44 3.03 M9.09 54.28 C15.28 44.97, 31.16 34.33, 53.7 2.96 M9.09 54.28 C20.42 40.77, 29.94 33.04, 53.7 2.96 M8.7 79.11 C28.05 61.6, 41.82 44.8, 74.96 2.89 M8.7 79.11 C25.45 61.7, 39.44 43.76, 74.96 2.89 M5.03 107.72 C38.03 73.26, 75.15 32.51, 96.22 2.82 M5.03 107.72 C27.89 80.29, 52.9 49.32, 96.22 2.82 M16.45 118.98 C48.94 88.78, 82.48 53.18, 117.48 2.75 M16.45 118.98 C51.03 77.37, 85.94 38.16, 117.48 2.75 M34.43 122.68 C69.45 84.41, 98.34 47.47, 138.74 2.68 M34.43 122.68 C58.89 98.1, 82.25 69.65, 138.74 2.68 M55.69 122.61 C84.44 90.82, 108.08 62.2, 160 2.61 M55.69 122.61 C92.53 84.02, 126.7 42.33, 160 2.61 M76.95 122.54 C115.28 82.73, 144.95 42.29, 181.26 2.54 M76.95 122.54 C110.13 82.9, 146.2 42.72, 181.26 2.54 M98.21 122.47 C131.37 90.65, 159.09 55.94, 202.52 2.47 M98.21 122.47 C122.92 93.89, 153.11 63.98, 202.52 2.47 M118.81 123.16 C142.26 101.16, 160.06 74.88, 223.78 2.41 M118.81 123.16 C139.13 97.32, 161.31 72.94, 223.78 2.41 M140.08 123.09 C168.16 83.42, 202.49 52.26, 240.45 7.62 M140.08 123.09 C166.87 92.35, 191.09 64.4, 240.45 7.62 M161.34 123.02 C187.61 90.14, 221.17 59.15, 257.78 12.08 M161.34 123.02 C191.97 88.24, 219.47 54.72, 257.78 12.08 M182.6 122.95 C212.11 80.34, 246.11 47.78, 265.91 27.1 M182.6 122.95 C212.05 90.37, 240.2 58.15, 265.91 27.1 M203.86 122.88 C223.13 98.53, 249.02 77.56, 266.18 51.19 M203.86 122.88 C228.98 94.85, 251.73 64.25, 266.18 51.19 M225.12 122.81 C240.53 104.17, 255.38 89.67, 266.45 75.27 M225.12 122.81 C238.81 107.71, 250.96 94.45, 266.45 75.27" stroke="#ffc9c9" stroke-width="2" fill="none"></path><path d="M29.69 0 C71.65 5.15, 115.41 3.07, 231.57 0 M29.69 0 C79.05 3.93, 129.59 3.39, 231.57 0 M231.57 0 C250.61 -1.76, 260.59 12.82, 261.26 29.69 M231.57 0 C254.86 -3.94, 265.73 7, 261.26 29.69 M261.26 29.69 C262.53 48.9, 259.5 65.98, 261.26 89.06 M261.26 29.69 C259.47 46.36, 261.29 62.19, 261.26 89.06 M261.26 89.06 C260.76 109.91, 250.15 122.52, 231.57 118.75 M261.26 89.06 C263.02 112.77, 255.28 118.39, 231.57 118.75 M231.57 118.75 C167.81 113.47, 110.94 116.7, 29.69 118.75 M231.57 118.75 C184.78 116.01, 137.44 113.96, 29.69 118.75 M29.69 118.75 C7.81 115.22, -0.76 108.01, 0 89.06 M29.69 118.75 C13.23 118.18, -3.47 109.41, 0 89.06 M0 89.06 C-0.96 77.25, -2.78 60.68, 0 29.69 M0 89.06 C-0.82 77.93, 1.19 64.79, 0 29.69 M0 29.69 C-3.16 9.45, 10.28 1.4, 29.69 0 M0 29.69 C1.09 11.9, 11.36 -4.01, 29.69 0" stroke="#e03131" stroke-width="4" fill="none"></path></g><g stroke-linecap="round" transform="translate(795.8690032958984 136.25) rotate(0 123.75599670410156 60)"><path d="M7.33 7.7 C7.33 7.7, 7.33 7.7, 7.33 7.7 M7.33 7.7 C7.33 7.7, 7.33 7.7, 7.33 7.7 M0.38 40.08 C11.7 28.39, 19.08 20.28, 34.49 0.83 M0.38 40.08 C14.21 23.18, 28.8 7.53, 34.49 0.83 M0.65 64.16 C21.12 41.37, 32.46 28.8, 55.75 0.77 M0.65 64.16 C13.44 49.98, 27.79 32.33, 55.75 0.77 M0.91 88.24 C28.17 53.31, 62.29 18.28, 77.01 0.7 M0.91 88.24 C30.3 56.53, 58.19 21.91, 77.01 0.7 M4.46 108.55 C41.81 69.07, 76.41 20.38, 98.27 0.63 M4.46 108.55 C32.75 82.09, 58.53 50.93, 98.27 0.63 M17.85 117.54 C38.24 97.73, 58.14 67.33, 119.53 0.56 M17.85 117.54 C42.45 88.66, 65.78 58.1, 119.53 0.56 M36.48 120.49 C63.29 91.34, 91.02 58.82, 140.79 0.49 M36.48 120.49 C60.1 91.97, 84.2 64.62, 140.79 0.49 M57.74 120.42 C82.47 88.37, 107.05 58.32, 162.06 0.42 M57.74 120.42 C93.12 76.6, 133.96 31.96, 162.06 0.42 M79 120.35 C114.1 75.33, 156.5 34.15, 183.32 0.35 M79 120.35 C107.8 89.25, 133.23 57.37, 183.32 0.35 M100.26 120.28 C135.88 78.69, 173.12 40.48, 204.58 0.28 M100.26 120.28 C121.89 96.4, 140.71 69.05, 204.58 0.28 M121.52 120.21 C158.51 78.92, 199.81 30.07, 224.52 1.72 M121.52 120.21 C157.22 77.01, 194.76 31.96, 224.52 1.72 M142.78 120.14 C167.68 97.08, 183.63 70.67, 239.88 8.45 M142.78 120.14 C167.27 90.65, 192.87 64.53, 239.88 8.45 M164.04 120.07 C197.36 84, 230.24 50.29, 247.36 24.23 M164.04 120.07 C193.56 86.81, 225.53 52.99, 247.36 24.23 M185.3 120.01 C207.05 99.11, 224.48 74, 246.97 49.06 M185.3 120.01 C202.51 102.86, 216.1 86.73, 246.97 49.06 M206.56 119.94 C222.97 103.99, 238.19 85.32, 247.24 73.14 M206.56 119.94 C221.84 103.12, 239.65 82.51, 247.24 73.14 M229.79 117.6 C233.05 111.86, 242.78 103.74, 246.19 98.74 M229.79 117.6 C234.3 115.53, 235.66 110.77, 246.19 98.74" stroke="#ffc9c9" stroke-width="2" fill="none"></path><path d="M30 0 C101 0.36, 176.79 -1.47, 217.51 0 M30 0 C86.51 2.18, 139.81 2.29, 217.51 0 M217.51 0 C239.12 -2.67, 247.54 8.58, 247.51 30 M217.51 0 C241.91 -1.39, 243.54 10.22, 247.51 30 M247.51 30 C249.97 47.5, 248.86 68.79, 247.51 90 M247.51 30 C247.98 45.74, 247.88 65.07, 247.51 90 M247.51 90 C250.38 113.75, 238.68 118.27, 217.51 120 M247.51 90 C247.36 105.57, 238.66 119.45, 217.51 120 M217.51 120 C159.15 116.91, 102.61 116.94, 30 120 M217.51 120 C163.03 124.15, 105.53 125.23, 30 120 M30 120 C6.13 119.12, 1.27 106.26, 0 90 M30 120 C11.91 119.38, -0.52 111.16, 0 90 M0 90 C-1.44 74.22, 0.58 52.3, 0 30 M0 90 C-0.8 73.58, -1.97 59.15, 0 30 M0 30 C-3.19 10.29, 12.01 -1.5, 30 0 M0 30 C-4.14 10.61, 5.59 3.54, 30 0" stroke="#e03131" stroke-width="4" fill="none"></path></g><g transform="translate(517.25 186.25) rotate(0 98.96595764160156 17.5)"><text x="0" y="0" font-family="Virgil, Segoe UI Emoji" font-size="28px" fill="#1e1e1e" text-anchor="start" style="white-space: pre;" direction="ltr" dominant-baseline="text-before-edge">Node Exporter</text></g><g transform="translate(851 176.25) rotate(0 57.931976318359375 17.5)"><text x="0" y="0" font-family="Virgil, Segoe UI Emoji" font-size="28px" fill="#1e1e1e" text-anchor="start" style="white-space: pre;" direction="ltr" dominant-baseline="text-before-edge">CAdvisor</text></g><g stroke-linecap="round" transform="translate(533.75 393.75) rotate(0 341.875 50.625)"><path d="M6.08 6.61 C6.08 6.61, 6.08 6.61, 6.08 6.61 M6.08 6.61 C6.08 6.61, 6.08 6.61, 6.08 6.61 M0.44 37.49 C9.82 30.86, 15.81 17.16, 32.59 0.51 M0.44 37.49 C8.1 27.18, 20.77 16.12, 32.59 0.51 M1.37 60.81 C15.11 45.22, 36.46 22.18, 53.85 0.44 M1.37 60.81 C17.14 39.5, 36.64 17.7, 53.85 0.44 M1.63 84.89 C22.84 59.64, 39.46 38.77, 75.11 0.37 M1.63 84.89 C27.37 51.78, 58.05 21.06, 75.11 0.37 M11.08 98.41 C37 66.81, 65.22 39.35, 96.37 0.3 M11.08 98.41 C32.79 67.21, 58.14 38.57, 96.37 0.3 M30.38 100.61 C58.86 65.05, 98.18 22.41, 117.63 0.23 M30.38 100.61 C65.98 60.86, 100.68 22.05, 117.63 0.23 M50.98 101.29 C67.7 75.97, 89.77 58.44, 138.24 0.91 M50.98 101.29 C78.05 67.39, 107.68 37.42, 138.24 0.91 M72.24 101.22 C97.33 64.26, 133.84 35.57, 159.5 0.85 M72.24 101.22 C95.43 71.91, 119.76 44.84, 159.5 0.85 M93.5 101.15 C109.33 82.31, 132.15 58.75, 180.76 0.78 M93.5 101.15 C120.41 72.44, 141.3 46.25, 180.76 0.78 M114.76 101.08 C137.15 78.15, 157.02 54.67, 202.02 0.71 M114.76 101.08 C145.58 69.11, 172.59 37.49, 202.02 0.71 M136.02 101.02 C153.02 80.33, 169 59.51, 223.28 0.64 M136.02 101.02 C167.58 66.26, 198.06 30.01, 223.28 0.64 M157.28 100.95 C195.65 66.29, 227.31 25.38, 244.54 0.57 M157.28 100.95 C178.95 76.1, 201.88 50.18, 244.54 0.57 M178.54 100.88 C195.19 81.94, 214.97 54.68, 265.8 0.5 M178.54 100.88 C198.74 79.28, 217.32 55.33, 265.8 0.5 M199.8 100.81 C220.16 83.02, 239.7 55.18, 287.06 0.43 M199.8 100.81 C228.11 68.37, 257.78 33.05, 287.06 0.43 M221.06 100.74 C242.11 78.01, 262.47 49.91, 308.32 0.36 M221.06 100.74 C244.58 70.14, 273.45 39.12, 308.32 0.36 M241.66 101.42 C274.61 57.09, 311.13 20.2, 328.92 1.05 M241.66 101.42 C271.09 67.69, 297.96 35.01, 328.92 1.05 M262.93 101.36 C289.26 70.04, 317.03 38.16, 350.18 0.98 M262.93 101.36 C296.53 65.03, 330.95 24.33, 350.18 0.98 M284.19 101.29 C303.36 83.08, 325.42 61.57, 371.44 0.91 M284.19 101.29 C307.73 72.74, 329.85 46.11, 371.44 0.91 M305.45 101.22 C327.94 74.18, 355.94 51.75, 392.7 0.84 M305.45 101.22 C333.67 67.42, 359.71 37.55, 392.7 0.84 M326.71 101.15 C346.01 77.56, 366.99 52.63, 413.96 0.77 M326.71 101.15 C350.43 75.7, 375.85 50.17, 413.96 0.77 M347.97 101.08 C380.18 63.58, 413.99 24.58, 435.22 0.7 M347.97 101.08 C373.79 71.47, 400.93 42.18, 435.22 0.7 M369.23 101.01 C397.64 73.22, 422.58 37.82, 456.48 0.63 M369.23 101.01 C405.19 59.4, 440.99 17.99, 456.48 0.63 M390.49 100.94 C414.22 67.26, 443.75 39.32, 477.74 0.57 M390.49 100.94 C423.58 66.7, 453.03 31.41, 477.74 0.57 M411.75 100.87 C433.91 76.36, 460.12 49.85, 499 0.5 M411.75 100.87 C445.57 63.55, 477.4 25.67, 499 0.5 M432.35 101.56 C447.82 81.68, 475.6 54.58, 519.61 1.18 M432.35 101.56 C453.36 76.01, 474.28 50.17, 519.61 1.18 M453.61 101.49 C475.77 76.1, 502.95 50.85, 540.87 1.11 M453.61 101.49 C476.42 75.81, 500.41 49.53, 540.87 1.11 M474.87 101.42 C498.56 78.95, 515.61 53.3, 562.13 1.04 M474.87 101.42 C496.08 75.47, 518.26 50.72, 562.13 1.04 M496.13 101.35 C521.35 76.96, 542.75 45.07, 583.39 0.98 M496.13 101.35 C524.4 67.28, 555.05 33.44, 583.39 0.98 M517.39 101.28 C534.43 85.38, 550.74 61.43, 604.65 0.91 M517.39 101.28 C546.95 69.52, 573.04 36.1, 604.65 0.91 M538.65 101.21 C567.34 67.35, 586.4 43.34, 625.91 0.84 M538.65 101.21 C562.92 74.39, 585.76 47.23, 625.91 0.84 M559.91 101.14 C592.85 62.81, 624.18 24.99, 647.17 0.77 M559.91 101.14 C582.11 75.98, 603.95 49.11, 647.17 0.77 M581.17 101.08 C601.92 76.96, 623.15 52.86, 667.12 2.21 M581.17 101.08 C612.31 63.42, 642.25 31.16, 667.12 2.21 M602.43 101.01 C629.41 68.86, 657.72 42.34, 680.5 11.2 M602.43 101.01 C623.87 74.07, 644.52 51.05, 680.5 11.2 M623.04 101.69 C637.02 84.17, 655.1 69.85, 682.74 33.01 M623.04 101.69 C636.24 87.49, 649.74 70.01, 682.74 33.01 M644.3 101.62 C651.45 91.04, 662.37 80.79, 683.66 56.34 M644.3 101.62 C657.84 85.42, 672.83 68.12, 683.66 56.34 M666.87 100.05 C668.61 91.67, 680.13 88.34, 683.93 80.42 M666.87 100.05 C672.24 93.66, 682.06 84.85, 683.93 80.42" stroke="#ffc9c9" stroke-width="2" fill="none"></path><path d="M25.31 0 C174.02 -2.02, 323.88 -0.52, 658.44 0 M25.31 0 C226.73 -2.7, 426.99 -2.86, 658.44 0 M658.44 0 C674.57 3.54, 681.73 10.12, 683.75 25.31 M658.44 0 C676.94 -3.45, 682.34 12.52, 683.75 25.31 M683.75 25.31 C684.98 44.2, 688.2 60.47, 683.75 75.94 M683.75 25.31 C682.71 46.57, 685.62 66.09, 683.75 75.94 M683.75 75.94 C686.9 91.91, 673.71 101.64, 658.44 101.25 M683.75 75.94 C681.55 94.4, 671.4 104.24, 658.44 101.25 M658.44 101.25 C508.79 97.59, 357.71 100.08, 25.31 101.25 M658.44 101.25 C528.22 105.33, 398.91 104.37, 25.31 101.25 M25.31 101.25 C9.96 104.34, 0.1 93.8, 0 75.94 M25.31 101.25 C11.76 102.32, -0.34 97.03, 0 75.94 M0 75.94 C-0.57 61.94, -1.45 40.78, 0 25.31 M0 75.94 C1.45 66.51, -0.5 54.01, 0 25.31 M0 25.31 C-0.62 10.85, 8.86 0.64, 25.31 0 M0 25.31 C2.62 11.14, 4.3 -2.04, 25.31 0" stroke="#e03131" stroke-width="4" fill="none"></path></g><g transform="translate(697.9980112711588 418.75) rotate(0 116.38196055094403 26.25)"><text x="0" y="0" font-family="Virgil, Segoe UI Emoji" font-size="42.00000000000002px" fill="#1e1e1e" text-anchor="start" style="white-space: pre;" direction="ltr" dominant-baseline="text-before-edge">Prometheus</text></g><g stroke-linecap="round"><g transform="translate(295 430.13691064748485) rotate(0 116.87500000000003 1.2371169667882498)"><path d="M2.19 2.15 C40.93 1.96, 196.45 1.73, 234.7 1.66 M-0.07 0.84 C38.18 2.25, 193.39 4.26, 232.98 4.85" stroke="#1e1e1e" stroke-width="4" fill="none"></path></g><g transform="translate(295 430.13691064748485) rotate(0 116.87500000000003 1.2371169667882498)"><path d="M210.91 13.75 C217.7 8.31, 226.71 5.16, 234.08 4.67 M209.02 13.81 C218.27 9.9, 227.28 6.15, 233.51 4.01" stroke="#1e1e1e" stroke-width="4" fill="none"></path></g><g transform="translate(295 430.13691064748485) rotate(0 116.87500000000003 1.2371169667882498)"><path d="M211.15 -3.35 C218.02 -2.28, 226.94 1.08, 234.08 4.67 M209.26 -3.29 C218.56 -0.83, 227.48 1.77, 233.51 4.01" stroke="#1e1e1e" stroke-width="4" fill="none"></path></g></g><mask></mask><g stroke-linecap="round"><g transform="translate(910.9614177493477 260.00000000000006) rotate(0 3.867137100062564 65.12499999999997)"><path d="M2.49 -0.78 C4.33 20.57, 8.31 108.26, 8.86 130.04 M0.4 -3.68 C2.16 17.96, 5.37 110.81, 7.23 133.55" stroke="#1e1e1e" stroke-width="4" fill="none"></path></g><g transform="translate(910.9614177493477 260.00000000000006) rotate(0 3.867137100062564 65.12499999999997)"><path d="M-3.16 111.37 C-0.4 114.25, 1.68 121.66, 6.42 135.26 M-2.22 110.46 C0.39 118.61, 5.23 127.54, 7.34 132.84" stroke="#1e1e1e" stroke-width="4" fill="none"></path></g><g transform="translate(910.9614177493477 260.00000000000006) rotate(0 3.867137100062564 65.12499999999997)"><path d="M13.91 110.43 C12.87 113.67, 11.13 121.29, 6.42 135.26 M14.86 109.52 C11.09 118.11, 9.56 127.39, 7.34 132.84" stroke="#1e1e1e" stroke-width="4" fill="none"></path></g></g><mask></mask><g stroke-linecap="round" transform="translate(496.25 546.25) rotate(0 142.5 41.25)"><path d="M4.83 5.53 C4.83 5.53, 4.83 5.53, 4.83 5.53 M4.83 5.53 C4.83 5.53, 4.83 5.53, 4.83 5.53 M0.51 34.89 C8.9 17.7, 22.54 8.53, 30.69 0.18 M0.51 34.89 C12.6 23.52, 22.31 10.04, 30.69 0.18 M0.77 58.97 C19.15 42.83, 28.77 23.97, 51.29 0.86 M0.77 58.97 C13.47 46.59, 21.82 36.74, 51.29 0.86 M5.63 77.77 C20.01 62.31, 35.07 44.53, 72.55 0.79 M5.63 77.77 C25.22 58.33, 41.77 37.33, 72.55 0.79 M23.61 81.48 C36.09 61.85, 50.79 48.19, 93.81 0.72 M23.61 81.48 C39.4 65.16, 52.6 48.17, 93.81 0.72 M44.87 81.41 C69.55 60.32, 90.95 30.52, 115.07 0.65 M44.87 81.41 C68.08 57.97, 87.34 35.92, 115.07 0.65 M66.13 81.34 C83.79 64.62, 102.04 44.26, 135.68 1.34 M66.13 81.34 C86.36 58.19, 105.51 34.13, 135.68 1.34 M86.74 82.02 C106.32 58.17, 128.31 34.75, 156.94 1.27 M86.74 82.02 C104.73 60.47, 121.26 45.09, 156.94 1.27 M108 81.96 C127.09 56.87, 144.97 37.29, 178.2 1.2 M108 81.96 C129.3 54.65, 151.64 31.62, 178.2 1.2 M129.26 81.89 C147.57 62.53, 160.93 43.62, 199.46 1.13 M129.26 81.89 C156.3 50.88, 181.91 20.92, 199.46 1.13 M150.52 81.82 C167.47 63.76, 180.41 47.66, 220.06 1.82 M150.52 81.82 C178.78 50.33, 204.21 20.7, 220.06 1.82 M171.12 82.5 C192.52 59.8, 207.63 39.72, 241.32 1.75 M171.12 82.5 C194.12 59.59, 213.6 32.61, 241.32 1.75 M192.38 82.43 C212.08 56.58, 228.81 39.93, 262.58 1.68 M192.38 82.43 C217.7 55.81, 242.26 28.57, 262.58 1.68 M213.64 82.37 C232.47 59.57, 255.97 37.85, 280.56 5.38 M213.64 82.37 C237.38 59.65, 258.42 34.96, 280.56 5.38 M234.9 82.3 C258.57 58.28, 270.74 40.78, 284.76 24.94 M234.9 82.3 C246.88 66.51, 259.91 53.1, 284.76 24.94 M255.51 82.98 C265.58 76.67, 265.57 71.14, 284.37 49.77 M255.51 82.98 C264.38 71.22, 278.06 58.4, 284.37 49.77" stroke="#ffc9c9" stroke-width="2" fill="none"></path><path d="M20.63 0 C79.46 0.08, 147.36 0.86, 264.38 0 M20.63 0 C111.5 2.25, 199.92 1.49, 264.38 0 M264.38 0 C275.36 -1.04, 288.51 5.62, 285 20.63 M264.38 0 C280.09 0.66, 287.7 9.42, 285 20.63 M285 20.63 C289.36 30.49, 287.52 40.54, 285 61.88 M285 20.63 C284.11 28.36, 284.85 37.67, 285 61.88 M285 61.88 C282.26 77.21, 275.67 85.55, 264.38 82.5 M285 61.88 C287.21 79.84, 273.61 84.39, 264.38 82.5 M264.38 82.5 C206.97 76.35, 154.51 81.98, 20.63 82.5 M264.38 82.5 C183.5 82.77, 102.89 84.08, 20.63 82.5 M20.63 82.5 C9.05 82.06, 2.08 77.99, 0 61.88 M20.63 82.5 C7.22 86.21, 4.52 74, 0 61.88 M0 61.88 C3.09 49.26, 4.04 42.85, 0 20.63 M0 61.88 C-2.3 49.75, 1.42 40.04, 0 20.63 M0 20.63 C-2.08 4.74, 4.29 1.93, 20.63 0 M0 20.63 C0.27 2.31, 8.21 -3.94, 20.63 0" stroke="#e03131" stroke-width="4" fill="none"></path></g><g stroke-linecap="round" transform="translate(787.5 686.25) rotate(0 171.875 48.75)"><path d="M5.83 6.39 C5.83 6.39, 5.83 6.39, 5.83 6.39 M5.83 6.39 C5.83 6.39, 5.83 6.39, 5.83 6.39 M0.19 37.27 C8.35 22.39, 16.96 14.65, 32.34 0.29 M0.19 37.27 C9.96 23.83, 22.81 9.12, 32.34 0.29 M0.46 61.35 C16.06 39.51, 38.08 16.28, 53.6 0.22 M0.46 61.35 C17.39 44.97, 32.42 25.84, 53.6 0.22 M2.69 83.17 C24.83 56.03, 51.63 32.12, 74.86 0.15 M2.69 83.17 C29.93 52.79, 57.47 21.36, 74.86 0.15 M12.8 95.93 C40.07 61.66, 76.69 27.76, 95.47 0.84 M12.8 95.93 C37.72 62.45, 66.12 32.02, 95.47 0.84 M33.41 96.61 C57.08 72.61, 73.08 52.25, 116.73 0.77 M33.41 96.61 C62.14 66.18, 88.55 32.85, 116.73 0.77 M54.67 96.55 C83.55 63.63, 106.84 38.11, 137.99 0.7 M54.67 96.55 C77.61 71.58, 98.97 45.34, 137.99 0.7 M75.93 96.48 C100 72.91, 120.38 44.66, 159.25 0.63 M75.93 96.48 C103.45 63.82, 131.44 30.62, 159.25 0.63 M97.19 96.41 C116.51 71.47, 145.02 41.05, 180.51 0.56 M97.19 96.41 C121.41 65.74, 144.87 37.57, 180.51 0.56 M118.45 96.34 C138.01 77.53, 155.67 54.99, 201.11 1.25 M118.45 96.34 C138.4 74.44, 156.13 54.53, 201.11 1.25 M139.05 97.02 C171.92 62.86, 206 23.32, 222.37 1.18 M139.05 97.02 C165.24 65.64, 190.51 35.72, 222.37 1.18 M160.31 96.96 C191.57 65.88, 215.57 29.32, 243.63 1.11 M160.31 96.96 C182.26 75.02, 202.82 48.79, 243.63 1.11 M181.57 96.89 C207.33 66.06, 235.29 30.98, 264.89 1.04 M181.57 96.89 C205.75 65.94, 232.99 37.67, 264.89 1.04 M202.83 96.82 C222.63 69.75, 251.77 46.28, 285.49 1.72 M202.83 96.82 C227.76 71.15, 252.52 40.11, 285.49 1.72 M223.44 97.5 C248.2 64.01, 280.74 30.14, 306.75 1.66 M223.44 97.5 C251.4 64.99, 279.28 29.77, 306.75 1.66 M244.7 97.43 C275.62 65.99, 301.95 30.88, 328.02 1.59 M244.7 97.43 C263.72 75.17, 277.4 54.67, 328.02 1.59 M265.96 97.37 C294.35 71.45, 320.71 35.36, 340.75 11.33 M265.96 97.37 C283.35 76.15, 299.92 58.54, 340.75 11.33 M287.22 97.3 C306.65 74.71, 326.58 51.7, 342.98 33.15 M287.22 97.3 C300.82 83.05, 314.86 67.11, 342.98 33.15 M307.82 97.98 C319.27 85.77, 327.19 71.86, 342.59 57.98 M307.82 97.98 C319.27 82.85, 334.43 65.13, 342.59 57.98 M331.7 94.89 C332.39 92.85, 340.92 89.65, 342.2 82.82 M331.7 94.89 C334.76 92.7, 337.74 90.76, 342.2 82.82" stroke="#ffc9c9" stroke-width="2" fill="none"></path><path d="M24.37 0 C109.79 4.28, 190.84 -0.17, 319.38 0 M24.37 0 C130 -5.64, 238.39 -4, 319.38 0 M319.38 0 C338.39 0.54, 344.82 9.48, 343.75 24.37 M319.38 0 C335.44 2.2, 347.72 6.4, 343.75 24.37 M343.75 24.37 C341.25 44.02, 341.77 62.3, 343.75 73.12 M343.75 24.37 C342.57 34.98, 343.36 46.77, 343.75 73.12 M343.75 73.12 C340.62 91.13, 338.11 93.71, 319.38 97.5 M343.75 73.12 C345.68 87.85, 335.32 97.68, 319.38 97.5 M319.38 97.5 C245.33 91.02, 164.82 93.92, 24.37 97.5 M319.38 97.5 C213.15 96.62, 104.47 96.39, 24.37 97.5 M24.37 97.5 C7.01 97.38, 0.07 91.72, 0 73.12 M24.37 97.5 C4.97 97.12, 3.31 88.58, 0 73.12 M0 73.12 C2.22 63.59, 4.69 53.52, 0 24.37 M0 73.12 C-1.1 59.24, 1.42 41.54, 0 24.37 M0 24.37 C-1.35 11.27, 5.89 -3.49, 24.37 0 M0 24.37 C1.54 5.13, 11.86 4.01, 24.37 0" stroke="#e03131" stroke-width="4" fill="none"></path></g><g stroke-linecap="round" transform="translate(1375 300) rotate(0 139.375 171.875)"><path d="M7.86 8.16 C7.86 8.16, 7.86 8.16, 7.86 8.16 M7.86 8.16 C7.86 8.16, 7.86 8.16, 7.86 8.16 M0.91 40.54 C5.22 29.68, 14.75 21.6, 36.34 -0.21 M0.91 40.54 C9.02 31.01, 14.49 23.79, 36.34 -0.21 M1.18 64.62 C25.29 35.52, 40.43 17.51, 57.6 -0.28 M1.18 64.62 C13.78 53.35, 23.95 36.18, 57.6 -0.28 M0.79 89.46 C24.82 62.05, 45.66 34.03, 78.2 0.41 M0.79 89.46 C21.55 69.28, 42.43 45.4, 78.2 0.41 M1.05 113.54 C30.96 80.8, 57.28 52.58, 99.46 0.34 M1.05 113.54 C21.35 88.29, 40.53 63.79, 99.46 0.34 M0.66 138.38 C36.7 99.85, 69.97 63.77, 120.72 0.27 M0.66 138.38 C35.42 95.38, 71.73 55.05, 120.72 0.27 M0.93 162.46 C44.56 117.44, 88.68 66.89, 141.98 0.2 M0.93 162.46 C49.82 111.1, 95.53 56.77, 141.98 0.2 M0.54 187.3 C51.68 131.63, 98.61 80.39, 163.24 0.13 M0.54 187.3 C47.07 132.44, 93.52 75.86, 163.24 0.13 M0.81 211.38 C61.52 141.83, 130.95 69.43, 184.5 0.06 M0.81 211.38 C63.44 141.27, 125.64 69.71, 184.5 0.06 M1.07 235.46 C80.66 147.21, 154.32 61.69, 205.76 -0.01 M1.07 235.46 C64.68 166.04, 130.11 92.08, 205.76 -0.01 M0.68 260.3 C65.51 180.05, 135.99 101.19, 227.02 -0.08 M0.68 260.3 C67.37 184.6, 131.51 110.82, 227.02 -0.08 M0.95 284.38 C52.08 225.24, 107.91 164.03, 248.28 -0.15 M0.95 284.38 C93.75 177.53, 188.36 69.11, 248.28 -0.15 M0.56 309.22 C71.6 225.59, 142.69 142.78, 264.95 5.07 M0.56 309.22 C67.28 229.7, 134.79 153.64, 264.95 5.07 M4.76 328.77 C75.74 248.25, 143.06 171.62, 275.72 17.07 M4.76 328.77 C90.38 232.78, 175.65 136.56, 275.72 17.07 M16.18 340.02 C106.45 239.77, 193.63 135.72, 279.26 37.38 M16.18 340.02 C117.49 219.42, 221.55 100.21, 279.26 37.38 M33.51 344.48 C128.27 231.45, 226.4 122.81, 279.53 61.46 M33.51 344.48 C95.15 281.75, 152.42 213.97, 279.53 61.46 M54.77 344.41 C140.36 245.7, 224.95 150.71, 279.14 86.3 M54.77 344.41 C119.29 269.67, 185.4 195.2, 279.14 86.3 M76.03 344.34 C124.98 287.5, 172.92 233.3, 279.4 110.38 M76.03 344.34 C126.75 283.74, 177.05 227.68, 279.4 110.38 M97.29 344.27 C155.95 280.05, 210.41 220.38, 279.67 134.46 M97.29 344.27 C135.33 297.96, 173.86 253.92, 279.67 134.46 M118.55 344.2 C172.56 286.79, 221.57 231.96, 279.28 159.3 M118.55 344.2 C149.39 304.06, 184.43 264.6, 279.28 159.3 M139.81 344.13 C190.07 285.28, 242.44 225.97, 279.55 183.38 M139.81 344.13 C174.38 306.66, 208.33 270.25, 279.55 183.38 M161.07 344.07 C184 319.48, 208 290.8, 279.16 208.22 M161.07 344.07 C201.94 301.1, 236.72 256.56, 279.16 208.22 M182.33 344 C206.16 317.48, 228.08 293.36, 279.42 232.3 M182.33 344 C214.97 306.89, 248.32 271.3, 279.42 232.3 M203.59 343.93 C222.2 328.73, 240.39 307.2, 279.69 256.38 M203.59 343.93 C229.65 314.77, 253.87 287.21, 279.69 256.38 M224.85 343.86 C238.45 333.85, 243.52 315.8, 279.3 281.22 M224.85 343.86 C242.89 323.87, 257.89 306.44, 279.3 281.22 M246.11 343.79 C254.5 332.72, 273.21 314, 279.57 305.3 M246.11 343.79 C256.08 331.22, 270 318.41, 279.57 305.3" stroke="#ffc9c9" stroke-width="2" fill="none"></path><path d="M32 0 C81.56 2.03, 133.44 3.86, 246.75 0 M32 0 C80.76 -1.85, 132.26 0.88, 246.75 0 M246.75 0 C266.79 1.02, 275.46 12.1, 278.75 32 M246.75 0 C265.51 -3.54, 274.2 12.66, 278.75 32 M278.75 32 C273.35 107.38, 275.91 183.05, 278.75 311.75 M278.75 32 C277.62 101.19, 277.31 167.91, 278.75 311.75 M278.75 311.75 C279.49 333.72, 272.07 344.81, 246.75 343.75 M278.75 311.75 C277.81 337.63, 271.78 342.87, 246.75 343.75 M246.75 343.75 C188.07 343.8, 127.63 343.85, 32 343.75 M246.75 343.75 C197.67 342.64, 145.22 343.06, 32 343.75 M32 343.75 C12.39 347.21, -0.55 333.66, 0 311.75 M32 343.75 C11.37 347.34, 2.91 331.84, 0 311.75 M0 311.75 C-1.03 215.03, -5.18 112.18, 0 32 M0 311.75 C-1.7 238.17, -2.3 167.34, 0 32 M0 32 C1.49 10.46, 14.15 -2.87, 32 0 M0 32 C2.52 14.31, 7.4 2.17, 32 0" stroke="#e03131" stroke-width="4" fill="none"></path></g><g stroke-linecap="round"><g transform="translate(285 580) rotate(0 102.5 -0.625)"><path d="M-0.65 -2.63 C33.93 -2.92, 172.06 0.29, 206.29 0.48 M4.19 2.11 C38.62 0.83, 171.66 -3.49, 204.75 -3.59" stroke="#1e1e1e" stroke-width="4" fill="none"></path></g><g transform="translate(285 580) rotate(0 102.5 -0.625)"><path d="M179.55 6.35 C188.62 2.94, 193.24 1.18, 203.28 -4.89 M182.03 5.46 C186.89 3.28, 193.36 1.22, 204.22 -3.23" stroke="#1e1e1e" stroke-width="4" fill="none"></path></g><g transform="translate(285 580) rotate(0 102.5 -0.625)"><path d="M179.21 -10.75 C188.5 -9.74, 193.21 -7.09, 203.28 -4.89 M181.69 -11.64 C186.55 -9.12, 193.11 -6.49, 204.22 -3.23" stroke="#1e1e1e" stroke-width="4" fill="none"></path></g></g><mask></mask><g stroke-linecap="round"><g transform="translate(626.25 628.75) rotate(0 78.75 52.7668241998752)"><path d="M1.94 -2.39 C4.53 14.84, -8.42 83.63, 17.33 101.33 C43.08 119.03, 132.98 102.82, 156.42 103.8 M-0.45 2.48 C1.58 20.16, -10.75 86.39, 15 103.64 C40.74 120.89, 130.06 106.23, 154.03 105.97" stroke="#1e1e1e" stroke-width="4" fill="none"></path></g><g transform="translate(626.25 628.75) rotate(0 78.75 52.7668241998752)"><path d="M129.59 116.25 C137.93 111.66, 146.71 108.98, 155.22 106.43 M130.96 117.26 C137.94 113.63, 145.12 109.11, 153.47 106.4" stroke="#1e1e1e" stroke-width="4" fill="none"></path></g><g transform="translate(626.25 628.75) rotate(0 78.75 52.7668241998752)"><path d="M128.22 99.21 C136.94 100.82, 146.22 104.36, 155.22 106.43 M129.59 100.22 C136.91 101.9, 144.52 102.69, 153.47 106.4" stroke="#1e1e1e" stroke-width="4" fill="none"></path></g></g><mask></mask><g stroke-linecap="round"><g transform="translate(91.25 572.5) rotate(0 -2.562522457181636 -64.375)"><path d="M-0.89 -1.11 C-3.18 -11.29, -14.77 -37.4, -12.62 -58.7 C-10.47 -80, 8.5 -116.83, 12.03 -128.9 M3.83 -4.19 C1.27 -13.97, -14.83 -42.73, -13.57 -63.01 C-12.31 -83.29, 7.73 -114.73, 11.39 -125.88" stroke="#1e1e1e" stroke-width="4" fill="none"></path></g><g transform="translate(91.25 572.5) rotate(0 -2.562522457181636 -64.375)"><path d="M8.51 -99.27 C10.74 -107.93, 10.41 -118.94, 9.66 -127.2 M8.85 -101.44 C9.6 -107.99, 10.59 -114.81, 11.27 -126.57" stroke="#1e1e1e" stroke-width="4" fill="none"></path></g><g transform="translate(91.25 572.5) rotate(0 -2.562522457181636 -64.375)"><path d="M-7.01 -106.43 C0.58 -112.6, 5.56 -121.16, 9.66 -127.2 M-6.68 -108.61 C-1.7 -113.22, 3.54 -118.07, 11.27 -126.57" stroke="#1e1e1e" stroke-width="4" fill="none"></path></g></g><mask></mask><g stroke-linecap="round"><g transform="translate(235.02489408123398 445) rotate(0 12.48755295938301 56.875)"><path d="M-0.85 0.94 C3.35 9.19, 23.72 31.95, 24.17 50.69 C24.62 69.42, 4.85 102.71, 1.86 113.35 M3.89 -1.02 C7.73 7.45, 20.86 33.79, 21.5 53.33 C22.13 72.87, 11.34 105.54, 7.68 116.24" stroke="#1e1e1e" stroke-width="4" fill="none"></path></g><g transform="translate(235.02489408123398 445) rotate(0 12.48755295938301 56.875)"><path d="M7.43 90.69 C5.81 96.53, 7.06 106.25, 8.23 115.18 M6.86 90.76 C7.91 98.12, 6.78 106.85, 7.33 115.64" stroke="#1e1e1e" stroke-width="4" fill="none"></path></g><g transform="translate(235.02489408123398 445) rotate(0 12.48755295938301 56.875)"><path d="M23.7 95.94 C17.76 100.35, 14.71 108.67, 8.23 115.18 M23.14 96.01 C19.22 101.85, 13.19 109, 7.33 115.64" stroke="#1e1e1e" stroke-width="4" fill="none"></path></g></g><mask></mask><g transform="translate(573.75 566.25) rotate(0 71.85597229003906 22.5)"><text x="0" y="0" font-family="Virgil, Segoe UI Emoji" font-size="36px" fill="#1e1e1e" text-anchor="start" style="white-space: pre;" direction="ltr" dominant-baseline="text-before-edge">Promtail</text></g><g transform="translate(933.75 713.75) rotate(0 33.46199035644531 22.5)"><text x="0" y="0" font-family="Virgil, Segoe UI Emoji" font-size="36px" fill="#1e1e1e" text-anchor="start" style="white-space: pre;" direction="ltr" dominant-baseline="text-before-edge">Loki</text></g><g stroke-linecap="round"><g transform="translate(1128.75 743.75) rotate(0 176.0762450293505 -47.49999999999997)"><path d="M1.7 -2.69 C54 -3.13, 255.6 11.41, 313.77 -3.94 C371.93 -19.29, 344.45 -79.2, 350.69 -94.79 M-0.82 2.03 C51.11 1.93, 253.39 13.82, 311.54 -1.77 C369.69 -17.37, 341.47 -75.82, 348.09 -91.56" stroke="#1e1e1e" stroke-width="4" fill="none"></path></g><g transform="translate(1128.75 743.75) rotate(0 176.0762450293505 -47.49999999999997)"><path d="M354.9 -68.12 C352.39 -76.13, 351.86 -82.78, 346.33 -92.62 M357.51 -68.37 C354.54 -74.95, 352.23 -79.95, 347.13 -91.45" stroke="#1e1e1e" stroke-width="4" fill="none"></path></g><g transform="translate(1128.75 743.75) rotate(0 176.0762450293505 -47.49999999999997)"><path d="M337.8 -67.99 C340.41 -76.14, 344.99 -82.83, 346.33 -92.62 M340.41 -68.24 C341.93 -74.79, 344.12 -79.83, 347.13 -91.45" stroke="#1e1e1e" stroke-width="4" fill="none"></path></g></g><mask></mask><g stroke-linecap="round"><g transform="translate(960.1068777006678 504.75) rotate(0 205.5715611496662 30.125)"><path d="M1.98 -0.07 C10.42 9.49, -16.17 48.18, 51.71 58.61 C119.6 69.05, 349.39 62.44, 409.29 62.56 M-0.39 -2.58 C7.63 7.2, -19.47 51.21, 49.78 61.35 C119.03 71.5, 354.8 58.29, 415.12 58.3" stroke="#1e1e1e" stroke-width="4" fill="none"></path></g><g transform="translate(960.1068777006678 504.75) rotate(0 205.5715611496662 30.125)"><path d="M391.83 67.91 C398.51 62.91, 409.19 61.13, 414.48 59.13 M392.65 68.46 C400.05 63.34, 410.34 59.72, 414.25 57.91" stroke="#1e1e1e" stroke-width="4" fill="none"></path></g><g transform="translate(960.1068777006678 504.75) rotate(0 205.5715611496662 30.125)"><path d="M391.35 50.81 C398.27 51.58, 409.12 55.57, 414.48 59.13 M392.17 51.37 C399.77 52.74, 410.24 55.63, 414.25 57.91" stroke="#1e1e1e" stroke-width="4" fill="none"></path></g></g><mask></mask><g transform="translate(1438.75 441.25) rotate(0 75.11397552490234 22.5)"><text x="0" y="0" font-family="Virgil, Segoe UI Emoji" font-size="36px" fill="#1e1e1e" text-anchor="start" style="white-space: pre;" direction="ltr" dominant-baseline="text-before-edge">Grafana</text></g><g transform="translate(492.75 98.75) rotate(0 120.14044189453125 14.375)"><text x="0" y="0" font-family="Virgil, Segoe UI Emoji" font-size="23.00000000000001px" fill="#e03131" text-anchor="start" style="white-space: pre;" direction="ltr" dominant-baseline="text-before-edge">Host Machine Metrics</text></g><g transform="translate(798.5 95) rotate(0 111.00094604492193 16.074053607298126)"><text x="0" y="0" font-family="Virgil, Segoe UI Emoji" font-size="25.718485771677084px" fill="#e03131" text-anchor="start" style="white-space: pre;" direction="ltr" dominant-baseline="text-before-edge">Container Metrics</text></g><g transform="translate(337.5 352.5) rotate(0 50.77997589111328 35.41143295878389)"><text x="0" y="0" font-family="Virgil, Segoe UI Emoji" font-size="28.32914636702708px" fill="#e03131" text-anchor="start" style="white-space: pre;" direction="ltr" dominant-baseline="text-before-edge">Server </text><text x="0" y="35.41143295878385" font-family="Virgil, Segoe UI Emoji" font-size="28.32914636702708px" fill="#e03131" text-anchor="start" style="white-space: pre;" direction="ltr" dominant-baseline="text-before-edge">Metrics</text></g><g transform="translate(327.5 591.25) rotate(0 40.87623596191406 33.12500000000003)"><text x="0" y="0" font-family="Virgil, Segoe UI Emoji" font-size="26.500000000000018px" fill="#e03131" text-anchor="start" style="white-space: pre;" direction="ltr" dominant-baseline="text-before-edge">Server</text><text x="0" y="33.12500000000002" font-family="Virgil, Segoe UI Emoji" font-size="26.500000000000018px" fill="#e03131" text-anchor="start" style="white-space: pre;" direction="ltr" dominant-baseline="text-before-edge">Logs</text></g><g transform="translate(655 673.75) rotate(0 39.545989990234375 22.5)"><text x="0" y="0" font-family="Virgil, Segoe UI Emoji" font-size="36px" fill="#e03131" text-anchor="start" style="white-space: pre;" direction="ltr" dominant-baseline="text-before-edge">Logs</text></g><g transform="translate(1240 693.75) rotate(0 39.545989990234375 22.5)"><text x="0" y="0" font-family="Virgil, Segoe UI Emoji" font-size="36px" fill="#e03131" text-anchor="start" style="white-space: pre;" direction="ltr" dominant-baseline="text-before-edge">Logs</text></g><g transform="translate(1025 523.75) rotate(0 64.29596710205078 22.5)"><text x="0" y="0" font-family="Virgil, Segoe UI Emoji" font-size="36px" fill="#e03131" text-anchor="start" style="white-space: pre;" direction="ltr" dominant-baseline="text-before-edge">Metrics</text></g><g stroke-linecap="round"><g transform="translate(603.75 261.25) rotate(0 1.25 62.5)"><path d="M0.7 2.06 C0.98 22.88, 1.95 103.02, 1.91 123.89 M-2.37 0.71 C-2.53 22.01, -2.07 106.53, -0.64 126.92" stroke="#1e1e1e" stroke-width="4" fill="none"></path></g><g transform="translate(603.75 261.25) rotate(0 1.25 62.5)"><path d="M-8.47 103.29 C-7.97 109.36, -2.68 116.81, -1.46 127.12 M-10.56 103.7 C-7.94 109.96, -5.59 117.37, -0.69 127.79" stroke="#1e1e1e" stroke-width="4" fill="none"></path></g><g transform="translate(603.75 261.25) rotate(0 1.25 62.5)"><path d="M8.62 102.74 C3.88 109.02, 3.91 116.64, -1.46 127.12 M6.54 103.16 C4.33 109.59, 1.87 117.15, -0.69 127.79" stroke="#1e1e1e" stroke-width="4" fill="none"></path></g></g><mask></mask><g stroke-linecap="round" transform="translate(1102.5 150) rotate(0 193.125 36.875)"><path d="M4.91 4.27 C4.91 4.27, 4.91 4.27, 4.91 4.27 M4.91 4.27 C4.91 4.27, 4.91 4.27, 4.91 4.27 M7.8 25.33 C15.07 16.75, 16.09 19.11, 24.86 5.71 M7.8 25.33 C12.34 15.59, 18.9 9.83, 24.86 5.71 M8.72 48.66 C18.85 40.95, 25.97 33.84, 46.12 5.64 M8.72 48.66 C23.2 34.91, 38.15 15.36, 46.12 5.64 M8.99 72.74 C28.2 54.04, 42.14 34.12, 67.38 5.57 M8.99 72.74 C23.23 57.16, 39.79 37.28, 67.38 5.57 M23.03 80.97 C44.44 52.06, 74.67 28.25, 88.64 5.5 M23.03 80.97 C45.96 57.6, 69.22 32.02, 88.64 5.5 M44.29 80.9 C69.44 56.57, 91.48 24.49, 109.9 5.43 M44.29 80.9 C61.8 60.52, 80.74 39.82, 109.9 5.43 M65.55 80.83 C80.92 61.75, 95.67 43.31, 131.16 5.36 M65.55 80.83 C86.09 59.09, 104.35 39.84, 131.16 5.36 M86.15 81.52 C114.54 52.4, 138.86 26.36, 151.76 6.05 M86.15 81.52 C111.65 51.09, 135.06 24.29, 151.76 6.05 M107.42 81.45 C132.06 55.8, 152.65 30.17, 173.02 5.98 M107.42 81.45 C129.17 53.02, 153.49 29.27, 173.02 5.98 M128.68 81.38 C147.32 55.45, 167.11 37.1, 194.28 5.91 M128.68 81.38 C144.34 59.73, 162.24 40.96, 194.28 5.91 M149.94 81.31 C176.88 53.47, 198.06 20.61, 215.54 5.84 M149.94 81.31 C167.26 64.85, 180.6 45.92, 215.54 5.84 M171.2 81.24 C193.39 51.27, 217.06 24.85, 236.8 5.77 M171.2 81.24 C193.61 55.08, 221.52 25.15, 236.8 5.77 M192.46 81.17 C218.26 55.57, 246.31 26.03, 258.06 5.7 M192.46 81.17 C220.3 52.98, 243.52 21.95, 258.06 5.7 M213.72 81.1 C232.44 64.7, 243.8 39.89, 279.32 5.63 M213.72 81.1 C232.75 56.58, 250.17 36.88, 279.32 5.63 M234.98 81.04 C252.28 54.84, 271.65 37.06, 300.58 5.56 M234.98 81.04 C255.79 53.42, 279.53 28.64, 300.58 5.56 M256.24 80.97 C278.85 50.16, 305.39 20.87, 321.19 6.25 M256.24 80.97 C277.77 54.67, 299.3 28.59, 321.19 6.25 M276.84 81.65 C305.16 53.29, 332.54 19.7, 342.45 6.18 M276.84 81.65 C298.44 56.86, 323.95 28.6, 342.45 6.18 M298.1 81.58 C320.5 58.39, 336.31 34.72, 363.71 6.11 M298.1 81.58 C312.91 64.24, 328.78 42.96, 363.71 6.11 M319.36 81.51 C339.19 52.46, 363.67 29.19, 384.31 6.8 M319.36 81.51 C346.96 51.25, 370.24 23.11, 384.31 6.8 M340.62 81.45 C355.41 57.88, 373.71 39.4, 395.07 18.8 M340.62 81.45 C352.95 68.13, 367.13 51.6, 395.07 18.8 M368.44 73.83 C373.15 66.46, 385.49 61.56, 395.34 42.89 M368.44 73.83 C374.72 68.98, 378.28 58.61, 395.34 42.89" stroke="#ffc9c9" stroke-width="2" fill="none"></path><path d="M18.44 0 C106.94 5.11, 193.15 1.71, 367.81 0 M18.44 0 C104.82 2.95, 194.13 2.24, 367.81 0 M367.81 0 C382.43 -2.83, 389.42 3.24, 386.25 18.44 M367.81 0 C377.92 -2.79, 381.98 3.66, 386.25 18.44 M386.25 18.44 C387.69 27.37, 387.88 32.55, 386.25 55.31 M386.25 18.44 C385.09 27.45, 387.74 35.28, 386.25 55.31 M386.25 55.31 C387.6 68.86, 377.88 70.09, 367.81 73.75 M386.25 55.31 C384.17 70.35, 382.95 76.37, 367.81 73.75 M367.81 73.75 C254.77 78.1, 141.95 74.48, 18.44 73.75 M367.81 73.75 C285.55 74.7, 201.12 75.95, 18.44 73.75 M18.44 73.75 C6.24 74.01, -3.64 63.8, 0 55.31 M18.44 73.75 C2.79 74.95, -1.62 71.76, 0 55.31 M0 55.31 C-0.44 43.43, 4.34 36.24, 0 18.44 M0 55.31 C-1.6 45.43, -0.48 34.57, 0 18.44 M0 18.44 C3.42 9.64, 6.43 -3.19, 18.44 0 M0 18.44 C-0.11 3.05, 7.08 -2.36, 18.44 0" stroke="#e03131" stroke-width="4" fill="none"></path></g><g transform="translate(1187.5 167.5) rotate(0 116.10795593261719 20.715814392232126)"><text x="0" y="0" font-family="Virgil, Segoe UI Emoji" font-size="33.145303027571416px" fill="#1e1e1e" text-anchor="start" style="white-space: pre;" direction="ltr" dominant-baseline="text-before-edge">Alert Manager</text></g><g stroke-linecap="round"><g transform="translate(1126.25 387.5) rotate(0 1.25 -76.25)"><path d="M-0.84 -1.31 C-0.24 -27.04, 2.02 -129.09, 2.15 -154.24 M3.91 4.16 C4.23 -21.27, -0.53 -126.04, -0.28 -151.56" stroke="#1e1e1e" stroke-width="4" fill="none"></path></g><g transform="translate(1126.25 387.5) rotate(0 1.25 -76.25)"><path d="M7.83 -128.51 C5.26 -135.89, 4.47 -137.88, 0.48 -151.85 M7.8 -128.93 C5.5 -134.62, 2.87 -142.27, -0.71 -151.02" stroke="#1e1e1e" stroke-width="4" fill="none"></path></g><g transform="translate(1126.25 387.5) rotate(0 1.25 -76.25)"><path d="M-9.26 -128.14 C-7.59 -135.57, -4.14 -137.64, 0.48 -151.85 M-9.29 -128.56 C-6.5 -134.48, -4.03 -142.24, -0.71 -151.02" stroke="#1e1e1e" stroke-width="4" fill="none"></path></g></g><mask></mask><g stroke-linecap="round"><g transform="translate(1491.25 182.5) rotate(0 37.96164749150944 60.624999999999986)"><path d="M0.97 2.36 C12.48 4.71, 54.3 -7.64, 66.64 12.54 C78.98 32.72, 73.55 105.44, 74.98 123.45 M-1.95 1.17 C9.56 3.92, 52.86 -4.82, 65.29 14.83 C77.73 34.49, 70.98 101.11, 72.66 119.11" stroke="#1e1e1e" stroke-width="4" fill="none"></path></g><g transform="translate(1491.25 182.5) rotate(0 37.96164749150944 60.624999999999986)"><path d="M65.81 96.78 C64.05 99.9, 69.19 105.05, 72.19 119.68 M64.69 96.4 C66.54 100.66, 68.01 107.71, 73.17 119.33" stroke="#1e1e1e" stroke-width="4" fill="none"></path></g><g transform="translate(1491.25 182.5) rotate(0 37.96164749150944 60.624999999999986)"><path d="M82.91 96.79 C77.52 99.96, 79.03 105.11, 72.19 119.68 M81.79 96.41 C79.38 100.83, 76.58 107.88, 73.17 119.33" stroke="#1e1e1e" stroke-width="4" fill="none"></path></g></g><mask></mask><g transform="translate(1145 295) rotate(0 40.81597773234046 16.98401966920651)"><text x="0" y="0" font-family="Virgil, Segoe UI Emoji" font-size="27.174431470730397px" fill="#e03131" text-anchor="start" style="white-space: pre;" direction="ltr" dominant-baseline="text-before-edge">Alerts</text></g><g transform="translate(1473.75 236.25) rotate(0 37.82197570800781 15.738179385669234)"><text x="0" y="0" font-family="Virgil, Segoe UI Emoji" font-size="25.18108701707075px" fill="#e03131" text-anchor="start" style="white-space: pre;" direction="ltr" dominant-baseline="text-before-edge">Alerts</text></g><g transform="translate(616.25 296.25) rotate(0 42.86397806803387 15)"><text x="0" y="0" font-family="Virgil, Segoe UI Emoji" font-size="24.000000000000004px" fill="#e03131" text-anchor="start" style="white-space: pre;" direction="ltr" dominant-baseline="text-before-edge">Metrics</text></g><g transform="translate(932.1360219319661 300) rotate(0 42.86397806803387 15)"><text x="0" y="0" font-family="Virgil, Segoe UI Emoji" font-size="24.000000000000004px" fill="#e03131" text-anchor="start" style="white-space: pre;" direction="ltr" dominant-baseline="text-before-edge">Metrics</text></g><g stroke-linecap="round" transform="translate(10 72.5) rotate(0 855 371.25)"><path d="M32 0 C396.13 1.97, 757.32 1.89, 1678 0 M32 0 C468.47 2.52, 904.26 2.94, 1678 0 M1678 0 C1700.97 -2.66, 1713.85 11.05, 1710 32 M1678 0 C1698.67 4.19, 1709.73 8.23, 1710 32 M1710 32 C1713.71 200.85, 1713.64 368.08, 1710 710.5 M1710 32 C1705.42 253.51, 1704.34 473.74, 1710 710.5 M1710 710.5 C1707.48 728.52, 1700.02 744.64, 1678 742.5 M1710 710.5 C1713.71 733.43, 1695.56 746.34, 1678 742.5 M1678 742.5 C1032.17 745.08, 389.04 746.42, 32 742.5 M1678 742.5 C1255.83 731.82, 834.5 732.29, 32 742.5 M32 742.5 C10.96 740.11, -3.91 735.38, 0 710.5 M32 742.5 C10.99 746.98, -1.81 731.84, 0 710.5 M0 710.5 C5.18 501.63, 4.58 294.27, 0 32 M0 710.5 C3.71 533.26, 4.43 355.25, 0 32 M0 32 C3.36 8.86, 8.06 0.04, 32 0 M0 32 C3.65 11.51, 8.36 0.33, 32 0" stroke="#1971c2" stroke-width="4" fill="none"></path></g><g transform="translate(663.75 10) rotate(0 150.47994995117188 22.5)"><text x="0" y="0" font-family="Virgil, Segoe UI Emoji" font-size="36px" fill="#e03131" text-anchor="start" style="white-space: pre;" direction="ltr" dominant-baseline="text-before-edge">Docker Container</text></g><g stroke-linecap="round"><g transform="translate(1743.5714285714282 344.3749999999999) rotate(0 0 100.71428571428572)"><path d="M0.21 0.81 C-0.12 34.05, -2.76 168.51, -2.56 201.73 M-3.12 -1.22 C-2.56 32.33, 1.88 171.56, 2.45 205.53" stroke="#1e1e1e" stroke-width="4" fill="none"></path></g></g><mask></mask><g stroke-linecap="round"><g transform="translate(1745.0000000000002 542.9464285714287) rotate(0 101.42857142857133 -0.7142857142857224)"><path d="M-2.46 1.74 C31.34 1.67, 168.52 -2.32, 202.86 -2.67 M1.4 0.21 C34.82 0.72, 167.16 1.2, 200.62 0.28" stroke="#1e1e1e" stroke-width="4" fill="none"></path></g></g><mask></mask><g stroke-linecap="round"><g transform="translate(1763.5714285714287 514.375) rotate(0 32.85714285714266 -50.71428571428572)"><path d="M0.33 -0.35 C7.45 -5.21, 30.68 -14.82, 41.17 -31.23 C51.67 -47.65, 59.38 -87.03, 63.28 -98.86 M-2.94 -3.01 C3.93 -7.18, 26.84 -10.83, 38.8 -27.5 C50.75 -44.16, 64.51 -90.9, 68.8 -102.99" stroke="#e03131" stroke-width="4" fill="none"></path></g></g><mask></mask><g stroke-linecap="round"><g transform="translate(1662.142857142857 468.6607142857142) rotate(0 26.42857142857133 -3.571428571428555)"><path d="M1.1 -1.14 C10.2 -2.31, 43.93 -6.72, 52.94 -7.76 M-1.75 -4.23 C7.13 -4.91, 41.35 -4.43, 50.74 -4.47" stroke="#e03131" stroke-width="4" fill="none"></path></g><g transform="translate(1662.142857142857 468.6607142857142) rotate(0 26.42857142857133 -3.571428571428555)"><path d="M26.39 4.03 C32.48 3.48, 38.42 1.43, 52.23 -5.08 M26.53 4.19 C32.29 1.92, 37.19 0.13, 50.34 -4.76" stroke="#e03131" stroke-width="4" fill="none"></path></g><g transform="translate(1662.142857142857 468.6607142857142) rotate(0 26.42857142857133 -3.571428571428555)"><path d="M26.47 -13.07 C32.49 -9.49, 38.42 -7.4, 52.23 -5.08 M26.61 -12.91 C32.49 -11.51, 37.38 -9.62, 50.34 -4.76" stroke="#e03131" stroke-width="4" fill="none"></path></g></g><mask></mask></svg>